<?xml version="1.0" standalone="no"?>
<!DOCTYPE svg PUBLIC "-//W3C//DTD SVG 20010904//EN"
 "http://www.w3.org/TR/2001/REC-SVG-20010904/DTD/svg10.dtd">
<svg version="1.0" xmlns="http://www.w3.org/2000/svg"
 width="64.000000pt" height="64.000000pt" viewBox="0 0 64.000000 64.000000"
 preserveAspectRatio="xMidYMid meet">

<g transform="translate(0.000000,64.000000) scale(0.100000,-0.100000)"
fill="#000000" stroke="none">
<path d="M271 467 c-44 -25 -50 -32 -36 -39 9 -5 22 -7 30 -4 9 3 12 0 8 -10
-4 -11 5 -14 46 -14 42 0 51 3 52 18 0 10 3 12 6 5 3 -9 10 -10 24 -3 20 11
26 30 9 30 -6 0 -27 11 -48 24 l-37 23 -54 -30z m77 -34 c-10 -2 -28 -2 -40 0
-13 2 -5 4 17 4 22 1 32 -1 23 -4z"/>
<path d="M251 374 c0 -11 3 -14 6 -6 3 7 2 16 -1 19 -3 4 -6 -2 -5 -13z"/>
<path d="M138 281 l25 -78 51 -17 c28 -10 57 -20 65 -23 14 -6 11 35 -11 124
-12 49 -50 73 -116 73 l-40 0 26 -79z"/>
<path d="M414 343 c-28 -14 -33 -23 -44 -77 -6 -33 -14 -71 -16 -84 -4 -21 -3
-22 18 -11 13 7 41 18 62 24 37 11 41 16 63 80 13 38 23 73 23 77 0 14 -73 8
-106 -9z"/>
</g>
</svg>
